<?xml version="1.0" encoding="UTF-8"?>
<svg id="Layer_1" data-name="Layer 1" xmlns="http://www.w3.org/2000/svg" viewBox="0 0 675.2462016272 188.5000821374">
  <defs>
    <style>
      .cls-1 {
        fill: #d00018;
      }

      .cls-2 {
        fill: #884612;
      }

      .cls-3 {
        letter-spacing: -.009765625em;
      }

      .cls-4 {
        fill: #c47d20;
      }

      .cls-5 {
        fill: #594a42;
        stroke: #000;
        stroke-width: 3px;
      }

      .cls-5, .cls-6 {
        stroke-miterlimit: 10;
      }

      .cls-7 {
        font-family: PalaceScriptMT, 'Palace Script MT';
        font-size: 12px;
      }

      .cls-6 {
        fill: #e6e7e8;
        stroke: #231f20;
        stroke-width: 2px;
      }

      .cls-8 {
        fill: #fff;
        font-family: Gabriola, Gabriola;
        font-size: 150px;
      }
    </style>
  </defs>
  <g>
    <path class="cls-4" d="M47.950007553,66.0000000006s-5.625,42.442881255-5.625,56.25-5.567881255,38.75-19.375,38.75S3.8013233533,142.3052638226,3.575007553,128.5000000006c-.625-38.125,44.375-62.5,44.375-62.5"/>
    <path d="M47.9500132727,66c.2521209717.4591522217-2.2713775635,2.3567810059-6.6525726318,5.9263305664-4.3472747803,3.5846557617-10.6535491943,8.8070983887-17.1974945068,16.282623291-3.2761993408,3.7216796875-6.5344390869,8.0574951172-9.433013916,13.0001220703-2.8411102295,4.9612121582-5.2913665771,10.5750732422-6.5412902832,16.7360534668-.594543457,3.075958252-1.0269317627,6.2674865723-.9480285645,9.5354614258-.0196533203,3.2758483887.3462219238,6.6958312988.966003418,10.0676574707.6361083984,3.3715515137,1.579208374,6.7401733398,2.9658203125,9.8407287598,1.3844909668,3.0762329102,3.2420654297,5.9346313477,5.606628418,7.7252197266,1.1786956787.8898620605,2.4320220947,1.5374755859,3.7834625244,1.8458557129.3381652832.0760498047.6737518311.1621398926,1.025680542.1915588379.3433685303.0607299805.6976013184.0821533203,1.055480957.0903625488.7149200439.0375671387,1.2902069092-.0334777832,1.9141082764-.1440124512,2.40625-.4792785645,4.6819915771-2.4465332031,6.4867706299-5.028137207,1.8099517822-2.5831298828,3.2014770508-5.6406860352,4.285949707-8.7532043457,1.0971679688-3.1168823242,1.9006958008-6.321105957,2.512802124-9.4805603027.6046905518-3.1625366211,1.0077514648-6.2966003418,1.1951751709-9.3180541992.0479888916-.7557373047.075088501-1.5011291504.0959777832-2.2397155762.0329589844-.8185119629.0656738281-1.6308288574.0981445312-2.4367980957.0814971924-1.6028442383.2055969238-3.1435852051.3286895752-4.6653137207.5390472412-6.0520935059,1.2381591797-11.6108398438,1.9303436279-16.6829223633,2.8383789062-20.2592773438,5.5196838379-32.6224212646,6.5213623047-32.4932556152,1.0522003174.1342926025.2298736572,12.7527160645-1.2463531494,33.0404052734-.3510894775,5.0675048828-.7398223877,10.6239318848-.998916626,16.5326843262-.0524902344,1.4693603516-.1087036133,2.9724731445-.1239318848,4.4646911621-.0009918213.7422180176-.0019989014,1.4902954102-.0030059814,2.2440795898.0091705322.8341674805.0093383789,1.6731262207-.0133056641,2.5123596191-.0870056152,3.3580932617-.4163360596,6.7685546875-.9787750244,10.2430725098-.5723724365,3.4721374512-1.3629608154,7.0094299316-2.5333862305,10.5754394531-1.1695098877,3.5604248047-2.6858978271,7.1769104004-5.0340118408,10.6457824707-1.1835784912,1.724395752-2.599319458,3.4150695801-4.4029083252,4.8879394531-1.7921905518,1.458984375-4.0248718262,2.7142333984-6.5346069336,3.2422790527-1.2321014404.2579956055-2.5596008301.381439209-3.7506103516.3271789551-.5964660645-.0137939453-1.1949615479-.0524291992-1.7978210449-.1456298828-.6028137207-.0608520508-1.2009887695-.1936645508-1.7991333008-.3312072754-2.3994750977-.5491333008-4.6616363525-1.7081604004-6.5724182129-3.1667175293-1.9289093018-1.4592285156-3.4638519287-3.2147521973-4.7394256592-5.0280151367-1.2749633789-1.8200683594-2.28956604-3.7185668945-3.1330871582-5.6316223145-1.6775512695-3.833190918-2.7014465332-7.7214660645-3.3754272461-11.5590209961-.6510772705-3.8466186523-.9900512695-7.632598877-.8979949951-11.4108276367-.0034332275-3.7957458496.5759887695-7.484588623,1.3633422852-10.9907531738,1.6392364502-7.0299987793,4.6320953369-13.205291748,7.9800109863-18.4826660156,3.4077453613-5.2562255859,7.1547698975-9.688079834,10.8669891357-13.3814697266,7.4227142334-7.4126281738,14.4380645752-12.1296081543,19.4119720459-15.0629272461,5.006072998-2.9097137451,8.0709991455-3.9752349854,8.3128051758-3.5250549316Z"/>
  </g>
  <g>
    <path class="cls-4" d="M137.009282226,66s5.6249999981,42.4428812553,5.6249999975,56.2500000003c-.0000000006,13.807118745,5.5678812533,38.7500000003,19.3749999983,38.7500000009,13.807118745.0000000006,19.1486842005-18.6947361771,19.3750000015-32.4999999991.6250000017-38.125-44.3749999972-62.500000002-44.3749999972-62.500000002"/>
    <path d="M137.0092936682,66c.2417907715-.4501800537,3.3067016602.6153411865,8.3127746582,3.5250549316,4.9739074707,2.9333190918,11.9892883301,7.6502990723,19.4119873047,15.0629272461,3.7122192383,3.6933898926,7.4592285156,8.1252441406,10.8670043945,13.3814697266,3.3479003906,5.2773742676,6.3407592773,11.4526672363,7.9799804688,18.4826660156.7873535156,3.5061645508,1.3667907715,7.1950073242,1.3633422852,10.9907531738.0920715332,3.7782287598-.246887207,7.5642089844-.8979797363,11.4108276367-.6739807129,3.8375549316-1.6978759766,7.7258300781-3.3754272461,11.5590209961-.8435058594,1.9130554199-1.8581237793,3.8115539551-3.1330871582,5.6316223145-1.2755737305,1.8132629395-2.8105163574,3.5687866211-4.739440918,5.0280151367-1.9107666016,1.4585571289-4.1729431152,2.6175842285-6.5724182129,3.1667175293-.5981445312.1375427246-1.1962890625.2703552246-1.7991027832.3312072754-.6028747559.0932006836-1.201385498.1318359375-1.7978210449.1456298828-1.1910400391.0542602539-2.5185241699-.0691833496-3.7506408691-.3271789551-2.5097351074-.5280456543-4.742401123-1.7832946777-6.5346069336-3.2422790527-1.8035583496-1.472869873-3.2192993164-3.1635437012-4.4028930664-4.8879394531-2.3481140137-3.4688720703-3.8645019531-7.085357666-5.033996582-10.6457824707-1.1704406738-3.5660095215-1.9610290527-7.103302002-2.533416748-10.5754394531-.5624389648-3.4745178223-.8917541504-6.884979248-.9787597656-10.2430725098-.022644043-.8392333984-.0224609375-1.6781921387-.0133056641-2.5123596191-.0010070801-.7537841797-.0020141602-1.5018615723-.0030212402-2.2440795898-.0151977539-1.4922180176-.0714416504-2.9953308105-.1239318848-4.4646911621-.2590637207-5.9087524414-.6478271484-11.4651794434-.9989013672-16.5326843262-1.4762268066-20.287689209-2.2985534668-32.9061126709-1.2463378906-33.0404052734,1.0016479492-.1291656494,3.6829528809,12.2339782715,6.5213317871,32.4932556152.692199707,5.0720825195,1.3912963867,10.6308288574,1.9303588867,16.6829223633.1231079102,1.5217285156.2471923828,3.0624694824.328704834,4.6653137207.0324401855.8059692383.0651550293,1.6182861328.0981445312,2.4367980957.0208740234.7385864258.0479736328,1.4839782715.0959777832,2.2397155762.1874084473,3.0214538574.5904541016,6.1555175781,1.1951599121,9.3180541992.612121582,3.1594543457,1.4156494141,6.3636779785,2.5127868652,9.4805603027,1.0845031738,3.1125183105,2.4760131836,6.1700744629,4.285949707,8.7532043457,1.8048095703,2.5816040039,4.0805358887,4.5488586426,6.4867858887,5.028137207.6239013672.110534668,1.1991882324.1815795898,1.9140930176.1440124512.3579101562-.0082092285.7121276855-.0296325684,1.0555114746-.0903625488.3518981934-.0294189453.6875-.1155090332,1.0256652832-.1915588379,1.3514404297-.308380127,2.6047668457-.9559936523,3.7834472656-1.8458557129,2.3645629883-1.7905883789,4.2221374512-4.6489868164,5.606628418-7.7252197266,1.3866271973-3.1005554199,2.3297424316-6.4691772461,2.9658508301-9.8407287598.6197509766-3.3718261719.9856262207-6.791809082.966003418-10.0676574707.0788879395-3.2679748535-.353515625-6.4595031738-.9480285645-9.5354614258-1.2499389648-6.1609802246-3.7001953125-11.7748413086-6.5412902832-16.7360534668-2.8985900879-4.9426269531-6.156829834-9.2784423828-9.4330444336-13.0001220703-6.5439453125-7.4755249023-12.850189209-12.6979675293-17.197479248-16.282623291-4.3811950684-3.5695495605-6.9046936035-5.4671783447-6.652557373-5.9263305664Z"/>
  </g>
  <g>
    <path class="cls-4" d="M92.4796305823,50.375c19.2401733398-.1952056885,36.9895019531,7.2647247314,49.6860046387,16.288269043,12.7313842773,9.3202819824,20.4098510742,20.2041931152,20.3139953613,33.711730957.0071105957,24.7402648926-28.4701843262,71.6346740723-70,72.744354248-41.5299682617-1.1098022461-70.0071716309-48.00390625-70-72.744354248-.0958862305-13.5075378418,7.5826721191-24.3913879395,20.3140411377-33.711807251,12.696472168-9.0235443115,30.4458007812-16.483505249,49.6859588623-16.288192749"/>
    <path d="M92.4796305823,50.375c.0146484375.4675445557-5.7506103516.2597198486-15.6984863281,2.5071105957-2.4859619141.5440216064-5.2018280029,1.3461608887-8.1423797607,2.2919769287-2.9242095947,1.00390625-6.0553131104,2.21824646-9.3285827637,3.7235717773-3.2707672119,1.5094146729-6.6695556641,3.3335876465-10.1291503906,5.4888153076-1.7306518555,1.0781555176-3.4654541016,2.2544555664-5.200302124,3.5005187988-.8554077148.6412658691-1.70262146,1.3146362305-2.5633239746,1.9925842285-.8310699463.7158203125-1.7104797363,1.4005737305-2.5314178467,2.163269043-3.3390350342,2.9866638184-6.5560302734,6.4240722656-9.1187591553,10.4755554199-1.2631530762,2.0296630859-2.3948364258,4.1879272461-3.248916626,6.4942321777-.8369445801,2.3103942871-1.42578125,4.7459411621-1.7189941406,7.2657775879-.5937194824,5.053527832.143371582,10.4026489258,1.6416931152,15.7725524902.7674102783,2.6780395508,1.664855957,5.3764648438,2.7881774902,8.0369873047.5164031982,1.3462524414,1.1630401611,2.6542358398,1.750213623,3.9937133789.662979126,1.3073425293,1.2710113525,2.6511230469,1.9999847412,3.946685791,1.3699798584,2.6356201172,2.9630279541,5.1936645508,4.6094207764,7.7512207031,1.7116241455,2.5151062012,3.4814605713,5.0377807617,5.4627685547,7.4336242676,3.8814697266,4.856262207,8.4025726318,9.3459777832,13.3941040039,13.3860473633,5.0560760498,3.943939209,10.6202392578,7.4523620605,16.733215332,9.8778686523,3.0311584473,1.2710571289,6.2085418701,2.2114868164,9.4461212158,2.9259033203l2.4441833496.4859619141c.8207397461.1319274902,1.6496124268.2196350098,2.4758148193.3333740234l1.2415466309.1626281738,1.2299194336.0790405273,2.4631195068.1553344727,2.463104248-.1553039551,1.2299194336-.0790710449,1.2415771484-.1626281738c.826171875-.1137084961,1.6550598145-.2014160156,2.4757995605-.3333435059l2.4441833496-.4859619141c3.2375793457-.7144165039,6.4149475098-1.6548461914,9.446105957-2.9259033203,6.1129760742-2.4255065918,11.677154541-5.9339294434,16.733215332-9.8778991699,4.9915161133-4.0400390625,9.5126037598-8.5297851562,13.3940734863-13.3860473633,1.9813232422-2.3958435059,3.751159668-4.918548584,5.4627685547-7.4336242676,1.6464233398-2.5575561523,3.2394714355-5.1156005859,4.6094360352-7.7512207031.7289733887-1.2955627441,1.3370361328-2.6393432617,2-3.946685791.5871582031-1.3394775391,1.2338256836-2.6474609375,1.750213623-3.9937133789,1.1233215332-2.6605224609,2.0207824707-5.3589172363,2.7882080078-8.0369567871,1.4983520508-5.369934082,2.2354736328-10.7190246582,1.6417541504-15.7725524902-.2932434082-2.5198669434-.8820495605-4.9553833008-1.7189941406-7.2658081055-.8540649414-2.3063049316-1.985748291-4.4645690918-3.2489013672-6.4942321777-2.562713623-4.0514831543-5.7797241211-7.4888916016-9.1187438965-10.4755249023-.8209533691-.7626953125-1.700378418-1.4474487305-2.5314331055-2.1632385254-.8607177734-.6779785156-1.7079162598-1.3513183594-2.5633544922-1.9925842285-1.7348327637-1.2460632324-3.4696350098-2.4223632812-5.2003173828-3.5005187988-3.4595947266-2.1552276611-6.8583679199-3.9794006348-10.1291503906-5.4888153076-3.2732543945-1.5053100586-6.4043579102-2.7196655273-9.3285827637-3.7235565186-2.9405517578-.9458312988-5.6564025879-1.7479705811-8.142364502-2.2919921875-9.9478759766-2.2474212646-15.7131347656-2.0396270752-15.6984863281-2.5071716309-.0023803711-.1607666016,1.4219055176-.34715271,4.1571044922-.4175872803,2.7313232422-.0292510986,6.7828979492.1418762207,11.9255371094,1.0168151855,2.5764770508.4097442627,5.3993530273,1.0875854492,8.4651489258,1.9238891602,3.0484924316.8941497803,6.3210144043,2.0132141113,9.7507324219,3.442199707,3.4272460938,1.4331970215,6.9971923828,3.1996002197,10.6444702148,5.3238372803,1.8229675293,1.061920166,3.6556396484,2.2286987305,5.5132141113,3.4895172119.9146728516.6472930908,1.8244018555,1.3309783936,2.745880127,2.0201263428.8911437988.7265014648,1.8256835938,1.4195556641,2.7122802734,2.2018127441,3.5903015137,3.0582580566,7.1239929199,6.6467895508,10.036895752,11.0461425781,1.4369506836,2.204498291,2.7443237305,4.5841674805,3.7541503906,7.1642456055.9930114746,2.5838012695,1.7120056152,5.3385314941,2.0904846191,8.190612793.7677001953,5.7223815918.0073547363,11.6897583008-1.5142211914,17.4257202148-.7810668945,2.8752441406-1.7019958496,5.752166748-2.8519897461,8.5725708008-.5314331055,1.4302368164-1.1915588379,2.811920166-1.797088623,4.2305908203-.679107666,1.3816223145-1.3073120117,2.8025512695-2.0561828613,4.1697998047-1.4116516113,2.7824707031-3.0526428223,5.4805603027-4.7573242188,8.1783752441-1.7698059082,2.6549682617-3.6067199707,5.3153381348-5.6684265137,7.850189209-4.040802002,5.1317443848-8.7743835449,9.9048461914-14.0595703125,14.2226257324-5.3540039062,4.2236938477-11.3007507324,8.008972168-17.9165039062,10.6583557129-3.2785644531,1.3811035156-6.7348022461,2.4171447754-10.2663269043,3.1992492676l-2.6679992676.5318603516c-.8963317871.1454772949-1.8022155762.2450256348-2.7053222656.3685913086l-1.3572998047.175994873-1.3889770508.0924682617-2.7886962891.1663513184-2.7887268066-.1663513184-1.388961792-.0924987793-1.3572998047-.175994873c-.9031066895-.1235656738-1.8089752197-.2231140137-2.7053222656-.3685913086l-2.6679992676-.5318603516c-3.5315093994-.7821044922-6.9877624512-1.818145752-10.2663269043-3.1992492676-6.615737915-2.6493530273-12.5625-6.4346313477-17.916519165-10.6583251953-5.2851715088-4.3178100586-10.0187683105-9.0908813477-14.0595550537-14.2226257324-2.0617218018-2.5348510742-3.898651123-5.1952209473-5.6684417725-7.850189209-1.7046966553-2.6978149414-3.3456726074-5.395904541-4.7573242188-8.1783752441-.7488708496-1.3672485352-1.3770751953-2.7882080078-2.0561676025-4.1697998047-.6055450439-1.4186706543-1.2656555176-2.8003540039-1.797088623-4.2306213379-1.1499786377-2.8204040527-2.070892334-5.6973266602-2.8519592285-8.5725402832-1.5215606689-5.7359924316-2.2818603516-11.7033691406-1.5141906738-17.4257507324.3784942627-2.8520812988,1.0975036621-5.6068115234,2.0905151367-8.190612793,1.0098419189-2.580078125,2.3172149658-4.9597473145,3.7541656494-7.1642456055,2.9129180908-4.3993225098,6.4466094971-7.9878540039,10.0368804932-11.0461425781.8866119385-.7822570801,1.8211364746-1.4752807617,2.7122802734-2.2018127441.9214630127-.6891479492,1.8311920166-1.3728485107,2.745880127-2.0201416016,1.8575744629-1.2608337402,3.6902313232-2.4275970459,5.5131988525-3.4895172119,3.6472625732-2.1242523193,7.2172241211-3.8906555176,10.6444702148-5.3238525391,3.4297180176-1.4289855957,6.7022247314-2.5480651855,9.7507324219-3.442199707,3.0657958984-.8363189697,5.888671875-1.5141448975,8.4651489258-1.9238891602,5.1426544189-.8749389648,9.1942138672-1.0460357666,11.9255371094-1.016784668,2.7352142334.0704650879,4.1594848633.2568664551,4.1571044922.4176177979Z"/>
  </g>
  <path class="cls-6" d="M162.4180920753,81H22.5411977009c-1.3011423065,0-2.2558583629-1.2227777998-1.9402850003-2.4850712501l15.5914103127-62.3656412507c2.2258350066-8.9033400266,10.2254971653-15.1492874993,19.4028500029-15.1492874993h73.7689437438c9.1773528376,0,17.1770149963,6.2459474727,19.4028500029,15.1492874993l15.5914103127,62.3656412507c.3155733626,1.2622934502-.6391426938,2.4850712501-1.9402850003,2.4850712501Z"/>
  <path d="M106.2296305823,100.0625c.019744873,5.9385070801-6.2939147949,10.4587097168-14.0625,10.3125-7.7684936523.1461486816-14.0822753906-4.3739929199-14.0625-10.3125-.0003814697-5.9770812988,6.1589813232-8.1940002441,14.0625-8.0852355957,7.9034118652-.1086730957,14.0630187988,2.1085510254,14.0625,8.0852355957Z"/>
  <path d="M62.479645841,110.375c1.4234771729.0091247559,2.4464416504,2.7515258789,4.8739318848,5.3765258789,1.2064361572,1.3119506836,2.7723693848,2.6000061035,4.6766357422,3.4729614258,1.8933258057.8850097656,4.101272583,1.3155517578,6.4203796387,1.1023864746,2.2914428711-.2231140137,4.3829040527-1.0840148926,6.0780792236-2.3180847168l.3150939941-.2323913574c.071975708-.0552978516.1077880859-.0818786621.1703033447-.1198120117.1134643555-.0533752441.2598571777-.2320861816.4040679932-.349029541.2917480469-.3244018555.6082611084-.6967468262.9014282227-1.1313476562.5966186523-.8521118164,1.1413269043-1.7986755371,1.6344604492-2.6867675781,1.9750976562-3.6206054688,3.1283416748-6.2119445801,4.525604248-6.239440918,1.348449707-.0570983887,2.7730102539,3.0719604492,2.2698059082,8.194519043-.1394348145,1.283416748-.3944396973,2.691619873-.9223327637,4.2525634766-.2562561035.7777404785-.6166381836,1.6069946289-1.086151123,2.4781494141-.2778320312.450592041-.5149841309.8868713379-.8995361328,1.3667602539-.1822662354.2320251465-.3846130371.4852294922-.5673828125.6969604492l-.4920196533.537109375c-2.6620330811,2.850189209-6.7688903809,5.0782775879-11.3777923584,5.5052490234-4.5766143799.4529418945-9.0503845215-.9190673828-12.2161102295-3.2175292969-3.2142944336-2.2777709961-5.1751708984-5.3171081543-6.0761413574-7.9892578125-.9090576172-2.6988220215-.846786499-5.0040283203-.4305877686-6.4877929688.4186248779-1.4999694824,1.1228485107-2.2153930664,1.7982635498-2.211730957Z"/>
  <path d="M92.4796305823,107.875c1.4019165039.0263366699,2.5350952148,2.5988464355,4.5601501465,6.0538024902.5045166016.8475952148,1.068939209,1.7397155762,1.6786804199,2.5263671875.309173584.3705444336.6207580566.7513122559.9168701172.997833252.1473388672.150604248.2825317383.2231750488.4010009766.3121032715.1676940918.1154785156.3955993652.3009033203.6063537598.4321594238,1.7128601074,1.1636047363,3.7866821289,1.9806213379,6.0623168945,2.1435852051,2.2975463867.1806945801,4.4641113281-.2943115234,6.3285827637-1.1840515137,1.8698120117-.8845825195,3.4167785645-2.160369873,4.6018676758-3.4639282227,2.3941345215-2.600769043,3.4211425781-5.3081665039,4.8441772461-5.3178710938.6756286621-.0035705566,1.3788452148.7033081055,1.801574707,2.1858215332.4186401367,1.4663085938.4954833984,3.7453308105-.3851013184,6.4190063477-.8663635254,2.6514282227-2.7833557129,5.6651916504-5.9269714355,7.9577636719-3.0987854004,2.3051452637-7.4921569824,3.7486572266-12.0238037109,3.3743591309-4.562286377-.3185424805-8.6628112793-2.4409484863-11.3703918457-5.1805114746-.3554077148-.3442077637-.6452636719-.6760864258-.9872436523-1.0682678223-.3674316406-.4431762695-.7169189453-.8911132812-.9725646973-1.3153991699-.5626525879-.8623352051-.9212799072-1.6711120605-1.2454986572-2.4514770508-.5989074707-1.5509338379-.9030761719-2.9598999023-1.0742492676-4.2430419922-.6253662109-5.1340637207.8468933105-8.2408752441,2.1842498779-8.1782531738Z"/>
  <path d="M107.4796448881,129.125s-6.715728753,36.25-15,36.25-15-36.25-15-36.25c0,0,6.715728753-7.5,15-7.5s15,7.5,15,7.5Z"/>
  <path class="cls-1" d="M92.4791566068,159.7724609375c2.6300048828-3.2575683594,6.3721923828-14.2056274414,9.0108642578-26.2608642578-2.5088500977-2.7534790039-5.6286010742-4.3865966797-9.0103759766-4.3865966797-3.3822631836,0-6.5023803711,1.6336669922-9.0114746094,4.387878418,2.6354980469,12.0527954102,6.3779907227,23.0013427734,9.0109863281,26.2595825195Z"/>
  <rect class="cls-5" x="41.8546448881" y="72.25" width="40.625" height="27.5" rx="5" ry="5"/>
  <rect class="cls-5" x="101.8546448881" y="72.25" width="40.625" height="27.5" rx="5" ry="5"/>
  <rect class="cls-5" x="82.4796448881" y="86" width="19.375" height=".00001"/>
  <g>
    <path class="cls-2" d="M47.4796448881,136c6.9035593725,0,13.1535593725,2.7982203138,17.6776695294,7.3223304706,4.5241101569,4.5241101569,7.3223304706,10.7741101569,7.3223304706,17.6776695294s-2.7982203137,13.1535593725-7.3223304706,17.6776695294c-4.5241101569,4.5241101569-10.7741101569,7.3223304706-17.6776695294,7.3223304706s-13.1535593725-2.7982203138-17.6776695294-7.3223304706c-4.5241101569-4.5241101569-7.3223304706-10.7741101569-7.3223304706-17.6776695294s2.7982203138-13.1535593725,7.3223304706-17.6776695294c4.5241101569-4.5241101569,10.7741101569-7.3223304706,17.6776695294-7.3223304706"/>
    <path d="M47.479645841,136c.0101165771.4016723633-2.2234802246.5137023926-5.8733825684,1.6991271973-1.8103942871.6141357422-3.9653625488,1.5344543457-6.189453125,3.0145568848-2.2158660889,1.4779968262-4.5033416748,3.5200195312-6.4214172363,6.2178039551-1.9140167236,2.6864929199-3.4353179932,6.0458984375-4.045501709,9.8333129883-.6206970215,3.7743835449-.3240661621,7.9875183105,1.1885223389,11.9755249023,1.5074462891,3.9799499512,4.2470397949,7.7399902344,8.0016784668,10.4389343262,3.7318267822,2.7124328613,8.4415130615,4.3283081055,13.339553833,4.3207397461,4.8980255127.0075683594,9.6077270508-1.6083068848,13.339553833-4.3207397461,3.7546386719-2.6989440918,6.4942321777-6.458984375,8.0016784668-10.4389343262,1.512588501-3.9880065918,1.8092193604-8.2011413574,1.1885223389-11.9755249023-.6101989746-3.7874145508-2.1314849854-7.1468200684-4.045501709-9.8333129883-1.9180755615-2.6977844238-4.2055511475-4.7398071289-6.4214172363-6.2178039551-2.224105835-1.4801025391-4.3790588379-2.4004211426-6.1894683838-3.0145568848-3.649887085-1.1854248047-5.8834838867-1.297454834-5.8733673096-1.6991271973-.0156707764-.2805175781,2.2417297363-.859375,6.3476104736-.1884155273,2.0331573486.3623352051,4.5135498047,1.0875854492,7.1464080811,2.5006713867,2.6220550537,1.4108276367,5.3991241455,3.5165100098,7.8019104004,6.475769043,2.3961334229,2.9440002441,4.3943481445,6.7729797363,5.3094482422,11.2157592773.9245300293,4.422088623.7601318359,9.4440307617-.9332580566,14.3076782227-1.6840362549,4.8446044922-4.9095916748,9.4710388184-9.4311828613,12.8144836426-4.4876098633,3.3612976074-10.2724304199,5.3890075684-16.2409362793,5.3740539551-5.9685058594.0149536133-11.753326416-2.0127563477-16.2409362793-5.3740539551-4.5215911865-3.3434448242-7.7471466064-7.9698791504-9.4311828613-12.8144836426-1.6933898926-4.8636474609-1.8577880859-9.8855895996-.9332733154-14.3076782227.9151153564-4.442779541,2.9133300781-8.2717590332,5.309463501-11.2157592773,2.4027862549-2.9592590332,5.1798400879-5.0649414062,7.8018951416-6.475769043,2.6328735352-1.4130859375,5.1132659912-2.1383361816,7.1464233398-2.5006713867,4.1058807373-.6709594727,6.36328125-.0921020508,6.3476104736.1884155273Z"/>
  </g>
  <g>
    <path class="cls-2" d="M135.4796448881,136c13.807118745,0,25,11.192881255,25,25s-11.192881255,25-25,25-25-11.192881255-25-25,11.192881255-25,25-25"/>
    <path d="M135.4796305823,136c-.0001220703.172454834-.5480651855.3692321777-1.5614318848.5832824707-.2548522949.0491333008-.5369873047.1035461426-.8464355469.1631774902-.3089599609.0701293945-.642364502.1742553711-1.0039978027.2651977539-.7227172852.1883850098-1.5563049316.3670654297-2.4547424316.7139587402-1.826751709.5577087402-3.9562988281,1.5523681641-6.1838989258,3.0086364746-2.2184753418,1.4678344727-4.505859375,3.5105895996-6.4150695801,6.2110900879-1.8903503418,2.6932983398-3.4679260254,6.0258789062-4.0534362793,9.8211364746-.5604248047,3.7711181641-.3737792969,7.9910583496,1.2044677734,11.964263916.3358764648,1.0137634277.8573608398,1.9613342285,1.3355712891,2.9390563965.578338623.9215698242,1.0997009277,1.8986206055,1.8159484863,2.7543640137.6372680664.9152832031,1.4398803711,1.7071533203,2.2019348145,2.5454101562.8515625.749206543,1.6755371094,1.5453796387,2.6357116699,2.1904907227,1.8745727539,1.327911377,3.9451293945,2.4941101074,6.221496582,3.1896057129,2.2614746094.7239379883,4.6578063965,1.1140136719,7.1038818359,1.1503295898,2.446105957-.036315918,4.8424377441-.4263916016,7.1039123535-1.1503295898,2.2763366699-.6954956055,4.3469238281-1.8616943359,6.221496582-3.1896057129.9601745605-.645111084,1.7841491699-1.4412841797,2.6357116699-2.1904907227.7620544434-.8382568359,1.564666748-1.6301269531,2.2019348145-2.5454101562.7162475586-.8557434082,1.2376098633-1.8327941895,1.8159484863-2.7543640137.4782104492-.977722168.9996948242-1.9252929688,1.3355712891-2.9390563965,1.5782470703-3.9732055664,1.7648925781-8.193145752,1.2044677734-11.964263916-.5855102539-3.7952575684-2.1630859375-7.1278381348-4.0534362793-9.8211364746-1.9092102051-2.7005004883-4.1965942383-4.7432556152-6.4150695801-6.2110900879-2.2276306152-1.4562683105-4.3571472168-2.4509277344-6.1838989258-3.0086364746-.8984375-.3468933105-1.7320251465-.5255737305-2.4547424316-.7139587402-.3616333008-.0909423828-.6950378418-.1950683594-1.0040283203-.2651977539-.3094177246-.0596313477-.5915527344-.1140441895-.8464050293-.1631774902-1.0133972168-.214050293-1.5613098145-.4108276367-1.5614624023-.5832824707-.0001220703-.172454834.5491333008-.3138427734,1.6249694824-.4223937988.2724609375-.0224914551.5740966797-.0474243164.904876709-.0747375488.3327026367-.0078125.6945495605.0198974609,1.0896911621.036529541.7897644043.0397949219,1.7106933594.0778503418,2.7214050293.2986755371,2.049407959.3059082031,4.5043945312,1.1054992676,7.1406860352,2.4946899414,2.6246948242,1.4006958008,5.4017028809,3.5070800781,7.7956848145,6.4691467285,2.3726196289,2.9509887695,4.426940918,6.753112793,5.3173217773,11.2033081055.8642272949,4.4177246094.8098754883,9.4494018555-.9491271973,14.2965698242-.3806762695,1.2299499512-.9650878906,2.393157959-1.5257873535,3.5844116211-.6602172852,1.1340637207-1.2831420898,2.3214416504-2.1188659668,3.3794250488-.7571105957,1.1180725098-1.6979064941,2.1053771973-2.6164245605,3.1290588379-1.0079956055.9346313477-2.0061340332,1.905670166-3.1578063965,2.7121887207-2.2566833496,1.6504516602-4.778717041,3.083984375-7.5530700684,3.9628601074-2.7582702637.9077453613-5.6944580078,1.3945617676-8.6735534668,1.430267334-2.9790649414-.0357055664-5.9152526855-.5225219727-8.6735229492-1.430267334-2.7743530273-.8788757324-5.2963867188-2.3124084473-7.5530700684-3.9628601074-1.1517028809-.8065185547-2.149810791-1.777557373-3.1578063965-2.7121887207-.9185180664-1.0236816406-1.8593139648-2.0109863281-2.6164245605-3.1290588379-.835723877-1.0579833984-1.4586486816-2.2453613281-2.1188659668-3.3794250488-.5606994629-1.1912536621-1.145111084-2.3544616699-1.5257873535-3.5844116211-1.7590026855-4.8471679688-1.8133544922-9.8788452148-.9491271973-14.2965698242.8903808594-4.4501953125,2.9447021484-8.2523193359,5.3173217773-11.2033081055,2.3939819336-2.9620666504,5.1709899902-5.0684509277,7.7956848145-6.4691467285,2.6362915039-1.3891906738,5.0912780762-2.1887817383,7.1406860352-2.4946899414,1.0107116699-.2208251953,1.931640625-.2588806152,2.7214050293-.2986755371.3951416016-.0166320801.7569885254-.044342041,1.0896911621-.036529541.3307800293.0273132324.6324157715.0522460938.9048461914.0747375488,1.0758666992.1085510254,1.6251220703.2499389648,1.6249694824.4223937988Z"/>
  </g>
  <text class="cls-7" transform="translate(146.2347020286 47.807769835) rotate(73.6286641751)"><tspan x="0" y="0">Lisi.Chen</tspan></text>
  <text class="cls-8" transform="translate(223.2657328772 145.3745994568)"><tspan x="0" y="0">Herman</tspan><tspan class="cls-3" x="381.4453125" y="0">T</tspan></text>
</svg>